# xmcd
#
# Track frame offsets: 
#        200
#        23365
#        40007
#        67810
#        85960
#        101540
#        121880
#        151435
#
# Disc length: 2377 seconds
#
# Revision: 4
# Processed by: cddbd v1.5.2PL0 Copyright (c) Steve Scherf et al.
# Submitted via: ExactAudioCopy v0.99pb4
#
DISCID=51094708
DTITLE=T-Bone Walker - I Want A Little Girl
DYEAR=1968
DGENRE=Blues
TTITLE0=I Want A Little Girl
TTITLE1=I Hate To See You Go
TTITLE2=Feeling The Blues
TTITLE3=Leaving You Behind
TTITLE4=Someone's Going To Mistreat You
TTITLE5=Baby Ain't I Good To You
TTITLE6=Ain't this Cold, Baby
TTITLE7=Late Hour Blues
EXTD=
EXTT0=
EXTT1=
EXTT2=
EXTT3=
EXTT4=
EXTT5=
EXTT6=
EXTT7=
PLAYORDER=
